<svg width="1100" height="840" viewBox="0 0 1100 840" fill="none" xmlns="http://www.w3.org/2000/svg">
  <rect width="1100" height="840" fill="#FBF7F2"/>
  <rect x="96" y="96" width="908" height="648" rx="54" fill="#171717"/>
  <circle cx="810" cy="260" r="220" fill="#F4C95D"/>
  <circle cx="374" cy="496" r="210" fill="#F26D5B"/>
  <rect x="158" y="150" width="784" height="540" rx="40" fill="#FFFDF8"/>
  <rect x="210" y="205" width="680" height="68" rx="24" fill="#111418"/>
  <rect x="248" y="229" width="118" height="20" rx="10" fill="#FFFDF8"/>
  <rect x="725" y="222" width="116" height="34" rx="17" fill="#F4C95D"/>
  <rect x="210" y="326" width="304" height="284" rx="34" fill="#F4C95D"/>
  <rect x="554" y="326" width="146" height="132" rx="28" fill="#F26D5B"/>
  <rect x="744" y="326" width="146" height="132" rx="28" fill="#D9E8FF"/>
  <rect x="554" y="498" width="336" height="112" rx="28" fill="#111418"/>
  <path d="M286 501C340 439 386 502 440 420" stroke="#111418" stroke-width="12" stroke-linecap="round"/>
  <rect x="594" y="535" width="185" height="17" rx="8.5" fill="#FFFDF8"/>
  <rect x="594" y="568" width="240" height="13" rx="6.5" fill="#9EA6B5"/>
</svg>
