<svg width="1100" height="840" viewBox="0 0 1100 840" fill="none" xmlns="http://www.w3.org/2000/svg">
  <rect width="1100" height="840" fill="#F4FAF8"/>
  <circle cx="270" cy="246" r="220" fill="#D4F4E6"/>
  <circle cx="844" cy="600" r="260" fill="#DDE4FF"/>
  <rect x="134" y="104" width="832" height="632" rx="50" fill="#101828"/>
  <rect x="184" y="154" width="732" height="532" rx="34" fill="#F9FAFB"/>
  <rect x="232" y="210" width="220" height="420" rx="30" fill="#111418"/>
  <rect x="492" y="210" width="376" height="118" rx="30" fill="#E8F5EF"/>
  <rect x="492" y="366" width="178" height="264" rx="30" fill="#EEF1FF"/>
  <rect x="690" y="366" width="178" height="264" rx="30" fill="#F8F0DD"/>
  <rect x="270" y="262" width="120" height="18" rx="9" fill="#F9FAFB"/>
  <rect x="270" y="302" width="72" height="72" rx="20" fill="#96A4FF"/>
  <rect x="270" y="414" width="126" height="14" rx="7" fill="#6B7280"/>
  <rect x="270" y="448" width="94" height="14" rx="7" fill="#6B7280"/>
  <path d="M540 288C586 248 621 301 665 269C706 240 721 265 753 236" stroke="#0DAA78" stroke-width="10" stroke-linecap="round"/>
  <rect x="540" y="430" width="72" height="144" rx="18" fill="#4E5CFF"/>
  <rect x="736" y="462" width="72" height="112" rx="18" fill="#E9B44C"/>
</svg>
