<svg width="1100" height="840" viewBox="0 0 1100 840" fill="none" xmlns="http://www.w3.org/2000/svg">
  <rect width="1100" height="840" fill="#F6F7FB"/>
  <circle cx="900" cy="120" r="260" fill="#DDE4FF"/>
  <circle cx="170" cy="700" r="260" fill="#DDF7EE"/>
  <rect x="130" y="110" width="840" height="620" rx="42" fill="white" stroke="#DADDE7" stroke-width="2"/>
  <rect x="178" y="165" width="745" height="78" rx="22" fill="#111418"/>
  <circle cx="220" cy="204" r="12" fill="#96A4FF"/>
  <rect x="252" y="192" width="160" height="24" rx="12" fill="#F6F7FB"/>
  <rect x="735" y="187" width="148" height="34" rx="17" fill="#96A4FF"/>
  <rect x="178" y="286" width="240" height="300" rx="28" fill="#F3F4F8" stroke="#E1E4EC"/>
  <rect x="452" y="286" width="430" height="132" rx="28" fill="#EEF1FF" stroke="#DDE4FF"/>
  <rect x="452" y="454" width="430" height="132" rx="28" fill="#F5F7F3" stroke="#E2E6DC"/>
  <path d="M216 516C250 445 302 472 325 403C345 343 388 356 403 326" stroke="#4E5CFF" stroke-width="10" stroke-linecap="round"/>
  <rect x="492" y="329" width="145" height="18" rx="9" fill="#111418"/>
  <rect x="492" y="361" width="310" height="14" rx="7" fill="#8D96A6"/>
  <rect x="492" y="497" width="180" height="18" rx="9" fill="#111418"/>
  <rect x="492" y="529" width="288" height="14" rx="7" fill="#8D96A6"/>
  <rect x="178" y="624" width="704" height="44" rx="22" fill="#111418"/>
</svg>
