<svg width="1600" height="1100" viewBox="0 0 1600 1100" fill="none" xmlns="http://www.w3.org/2000/svg">
  <rect width="1600" height="1100" rx="48" fill="#050B14"/>
  <rect width="1600" height="1100" rx="48" fill="url(#bg)"/>
  <g opacity="0.34">
    <path d="M0 160H1600M0 320H1600M0 480H1600M0 640H1600M0 800H1600M0 960H1600" stroke="white" stroke-width="1"/>
    <path d="M160 0V1100M320 0V1100M480 0V1100M640 0V1100M800 0V1100M960 0V1100M1120 0V1100M1280 0V1100M1440 0V1100" stroke="white" stroke-width="1"/>
  </g>
  <rect x="140" y="110" width="1280" height="860" rx="42" fill="#08111F" stroke="#273247" stroke-width="2"/>
  <rect x="184" y="154" width="1188" height="92" rx="24" fill="#0E1728" stroke="#2B3650"/>
  <circle cx="230" cy="200" r="15" fill="#29F1C3"/>
  <rect x="268" y="184" width="210" height="32" rx="16" fill="#EAF0FF"/>
  <rect x="1170" y="176" width="160" height="48" rx="24" fill="url(#button)"/>
  <rect x="184" y="286" width="300" height="624" rx="28" fill="#0E1728" stroke="#273247"/>
  <rect x="224" y="342" width="122" height="30" rx="15" fill="#9B7CFF"/>
  <rect x="224" y="408" width="224" height="22" rx="11" fill="#243047"/>
  <rect x="224" y="468" width="184" height="22" rx="11" fill="#243047"/>
  <rect x="224" y="528" width="210" height="22" rx="11" fill="#243047"/>
  <rect x="224" y="588" width="160" height="22" rx="11" fill="#243047"/>
  <rect x="528" y="286" width="844" height="260" rx="28" fill="#101A2D" stroke="#273247"/>
  <rect x="568" y="326" width="260" height="178" rx="22" fill="#121F35" stroke="#2C3852"/>
  <rect x="610" y="368" width="98" height="28" rx="14" fill="#9B7CFF"/>
  <rect x="610" y="426" width="168" height="20" rx="10" fill="#29F1C3"/>
  <rect x="858" y="326" width="260" height="178" rx="22" fill="#121F35" stroke="#2C3852"/>
  <rect x="900" y="368" width="120" height="28" rx="14" fill="#38BDF8"/>
  <rect x="900" y="426" width="166" height="20" rx="10" fill="#9B7CFF"/>
  <rect x="1148" y="326" width="232" height="178" rx="22" fill="#121F35" stroke="#2C3852"/>
  <rect x="1188" y="368" width="98" height="28" rx="14" fill="#29F1C3"/>
  <rect x="1188" y="426" width="134" height="20" rx="10" fill="#38BDF8"/>
  <rect x="528" y="588" width="516" height="322" rx="28" fill="#101A2D" stroke="#273247"/>
  <path d="M590 820C640 760 680 800 730 724C772 660 820 700 870 640C910 592 956 630 990 596" stroke="url(#line)" stroke-width="12" stroke-linecap="round"/>
  <path d="M590 820C640 760 680 800 730 724C772 660 820 700 870 640C910 592 956 630 990 596V860H590V820Z" fill="url(#area)" opacity="0.75"/>
  <rect x="1080" y="588" width="292" height="322" rx="28" fill="#101A2D" stroke="#273247"/>
  <circle cx="1226" cy="728" r="86" stroke="#26334B" stroke-width="30"/>
  <path d="M1226 642A86 86 0 0 1 1305 762" stroke="#29F1C3" stroke-width="30" stroke-linecap="round"/>
  <path d="M1305 762A86 86 0 0 1 1154 775" stroke="#9B7CFF" stroke-width="30" stroke-linecap="round"/>
  <rect x="636" y="114" width="278" height="48" rx="24" fill="#111B2E" stroke="#38435C"/>
  <text x="800" y="145" text-anchor="middle" font-family="Inter, Arial, sans-serif" font-size="21" font-weight="700" fill="#EAF0FF">HamadFlow Demo</text>
  <rect x="1010" y="774" width="328" height="78" rx="24" fill="url(#badge)" stroke="#5060A8"/>
  <text x="1174" y="824" text-anchor="middle" font-family="Inter, Arial, sans-serif" font-size="24" font-weight="700" fill="#FFFFFF">Workflow com IA</text>
  <defs>
    <radialGradient id="bg" cx="0" cy="0" r="1" gradientUnits="userSpaceOnUse" gradientTransform="translate(350 330) rotate(36) scale(980 760)">
      <stop stop-color="#1EEBC7" stop-opacity="0.22"/>
      <stop offset="0.45" stop-color="#7C6CFF" stop-opacity="0.26"/>
      <stop offset="1" stop-color="#050B14" stop-opacity="0"/>
    </radialGradient>
    <linearGradient id="button" x1="1170" y1="176" x2="1330" y2="224" gradientUnits="userSpaceOnUse">
      <stop stop-color="#6D5DFC"/>
      <stop offset="1" stop-color="#29F1C3"/>
    </linearGradient>
    <linearGradient id="line" x1="590" y1="820" x2="990" y2="596" gradientUnits="userSpaceOnUse">
      <stop stop-color="#9B7CFF"/>
      <stop offset="1" stop-color="#29F1C3"/>
    </linearGradient>
    <linearGradient id="area" x1="590" y1="596" x2="990" y2="860" gradientUnits="userSpaceOnUse">
      <stop stop-color="#9B7CFF"/>
      <stop offset="1" stop-color="#29F1C3" stop-opacity="0.18"/>
    </linearGradient>
    <linearGradient id="badge" x1="1010" y1="774" x2="1338" y2="852" gradientUnits="userSpaceOnUse">
      <stop stop-color="#251C5C"/>
      <stop offset="1" stop-color="#082B34"/>
    </linearGradient>
  </defs>
</svg>
